<svg width="430" height="442" viewBox="0 0 430 442" fill="none" xmlns="http://www.w3.org/2000/svg">
<path d="M-0.999985 0H430V441.897H-0.999985V0Z" fill="#E1BF7E"/>
<path fill-rule="evenodd" clip-rule="evenodd" d="M254.652 148.064V171.142H263.492V260.948H275.103V233.291H281.218V226.611L294.595 233.291H297.872V216.677L313.877 192.597L329.881 216.677V273.176H337.394V284.156H348.48V239.346H357.667L357.285 220.753H367.917V215.428H378.689L380.347 183.227L382.004 215.428H384.076V220.753H386.871L385.847 270.546H387.831V248.578L410.104 233.291V260.948H432.379V239.346H446.128V226.611L469.68 245.938V226.611L501.259 252.524V441.897H-2.14935V257.338H8.57706L7.82507 220.753H30.6381V167.796H44.1826V179.053H57.7289V189.36H71.2735V242.496H81.6874V217.791H85.3954V215.066H109.556V217.791H113.265V269.305H120.816V203.099H124.526V200.374H148.686V203.099H152.396V241.223H160.615V217.791H164.324V215.066H188.484V217.791H192.195V226.611L199.947 236.315V252.585H210.315V242.496H215.666V217.791H235.399V203.164L243.812 194.822V171.142H252.653V148.064H254.652Z" fill="white" fill-opacity="0.2"/>
<path fill-rule="evenodd" clip-rule="evenodd" d="M326.023 251.365V266.329H320.11V324.563H312.343V306.629H308.252V302.297L299.304 306.629H297.112V295.856L286.405 280.242L275.699 295.856V332.492H270.673V339.611H263.257V310.555H257.111L257.367 298.499H250.255V295.046H243.049L241.94 274.166L240.832 295.046H239.446V298.499H237.576L238.261 330.786H236.933V316.542L222.034 306.629V324.563H207.133V310.555H197.936V302.297L182.18 314.829V302.297L161.056 319.1V441.897H497.811V322.222H490.635L491.138 298.499H475.878V264.16H466.817V271.459H457.755V278.142H448.695V312.598H441.728V296.578H439.248V294.811H423.085V296.578H420.604V329.982H415.553V287.051H413.071V285.284H396.91V287.051H394.428V311.773H388.929V296.578H386.448V294.811H370.286V296.578H367.804V302.297L362.618 308.59V319.14H355.682V312.598H352.103V296.578H338.903V287.094L333.275 281.684V266.329H327.361V251.365H326.023Z" fill="white" fill-opacity="0.2"/>
<path fill-rule="evenodd" clip-rule="evenodd" d="M27.9648 251.365H29.001V266.329H33.5828V281.684L37.9429 287.094V296.578H48.17V312.598H50.943V319.14H56.3164V308.59L60.3344 302.297V296.578H62.2574V294.811H74.7786V296.578H76.7008V311.773H80.9608V287.051H82.8834V285.284H95.4046V287.051H97.3272V329.982H101.241V296.578H103.163V294.811H115.685V296.578H117.606V312.598H123.004V278.142H130.023V271.459H137.044V264.16H144.063V298.499H155.887L155.497 322.222H161.056V441.897H-99.8427V319.1L-83.4767 302.297V314.829L-71.2703 302.297V310.555H-64.1445V324.563H-52.6006V306.629L-41.0572 316.542V330.786H-40.0288L-40.5597 298.499H-39.1108V295.046H-38.0369L-37.1782 274.166L-36.3191 295.046H-30.7362V298.499H-25.226L-25.4243 310.555H-20.6628V339.611H-14.9175V332.492H-11.0238V295.856L-2.72933 280.242L5.5656 295.856V306.629H7.26389L14.1965 302.297V306.629H17.3658V324.563H23.3835V266.329H27.9648V251.365Z" fill="white" fill-opacity="0.2"/>
</svg>
